<?xml version="1.0" encoding="utf-8"?>
<svg version="1.1" id="layer" xmlns="http://www.w3.org/2000/svg" x="0px" y="0px"
     viewBox="0 0 652 652" style="enable-background:new 0 0 652 652;" xml:space="preserve">
<style type="text/css">
	.st0{fill:#1B377F;}
	.st1{fill:#FFFFFF;}
</style>
    <polyline points="7,496.7 31.5,553.2 56,496.7 69.7,567.9 62,567.9 53.3,522.4 53.1,522.4 31.5,570.7 9.9,522.4 9.7,522.4 1,567.9
	-6.7,567.9 "/>
    <polyline points="83.8,500.6 118.7,500.6 118.7,507.5 91.3,507.5 91.3,527.5 117.9,527.5 117.9,534.5 91.3,534.5 91.3,560.9
	118.7,560.9 118.7,567.9 83.8,567.9 "/>
    <path d="M137,500.6h12.7c10.1,0,18.3,1.3,26.2,8.1c7.7,6.6,11.2,15.6,11.2,25.6c0,9.8-3.6,18.5-11,25.1c-8,7.1-16.1,8.5-26.6,8.5
	H137 M149.9,560.9c8.2,0,15.1-1.2,21.2-7c5.5-5.2,8.4-12.2,8.4-19.7c0-7.7-2.9-15.1-8.7-20.2c-6.2-5.4-12.9-6.5-20.9-6.5h-5.4v53.4
	H149.9z"/>
    <rect x="203.2" y="500.6" width="7.5" height="67.3"/>
    <path d="M240,548.8l-8.1,19.1h-8.2l31.1-70.5l30.3,70.5h-8.3l-7.9-19.1 M254.5,514.9l-11.5,27h22.8L254.5,514.9z"/>
    <path d="M393.4,534.1c0.2,9.1-0.8,16.6-7,23.7c-6.2,7.1-15.5,11.3-24.9,11.3c-18.9,0-34.6-15.7-34.6-34.6c0-19.3,15.7-35,35.1-35
	c11.8,0,21.3,5.3,28.5,14.5l-5.4,5.1c-5.6-7.9-13.2-12.7-23.1-12.7c-15.4,0-27.5,13-27.5,28.1c0,7.1,2.9,13.9,7.9,19
	c4.9,4.9,12.1,8.6,19.1,8.6c11.7,0,24-8.6,24-21.1h-20v-7"/>
    <path d="M417.1,567.9h-7.5v-67.3h9.7c12.8,0,24.6,3.4,24.6,18.6c0,10.4-6.5,17.7-16.9,18.6l21.4,30.2h-9.2L419,538.3h-1.9
	 M417.1,531.7h2.3c8.5,0,17.1-1.6,17.1-12.1c0-11.1-8.1-12.1-17.1-12.1h-2.2V531.7z"/>
    <path d="M530.3,534.3c0,19.4-15.9,34.7-35.1,34.7c-19.2,0-35.1-15.4-35.1-34.7c0-19.3,15.9-34.9,35.1-34.9
	C514.4,499.4,530.3,515,530.3,534.3 M467.6,534.2c0,15.2,12.3,27.9,27.6,27.9s27.6-12.7,27.6-27.9c0-15.3-12.1-27.9-27.6-27.9
	C479.8,506.4,467.6,519,467.6,534.2"/>
    <path d="M553.3,540.7c0,5-0.2,10.7,2.9,15c3,4.1,8.7,6.4,13.6,6.4c4.8,0,10.1-2.2,13.2-6c3.6-4.3,3.3-10.2,3.3-15.4v-40.1h7.5v42.1
	c0,7.3-0.5,13.1-5.9,18.7c-4.6,5-11.3,7.7-18.1,7.7c-6.3,0-12.8-2.4-17.4-6.9c-5.9-5.6-6.6-11.8-6.6-19.5v-42.1h7.5"/>
    <path d="M620.2,567.9h-7.5v-67.3h11.1c5.8,0,11.8,0.2,16.7,3.6c5,3.5,7.6,9.4,7.6,15.4c0,5.4-2.2,11-6.4,14.5
	c-4.5,3.7-10.4,4.5-16,4.5h-5.4 M620.2,531.5h5c8.3,0,15.4-2.5,15.4-12.1c0-11-8.8-11.8-17.6-11.8h-2.8V531.5z"/>
    <rect x="135.3" y="70.7" class="st0" width="361.5" height="361.5"/>
    <polyline class="st1" points="272.6,96 471.5,96 471.5,294.8 "/>
    <path class="st1" d="M160.9,403.4v-72.1h26.8c12.8,0,21.4,5,21.4,18.7c0,6.5-2.1,11.8-7.9,14.7v0.2c10.3,1.3,14.7,8.3,14.7,18.4
	c0,15.1-12.9,20.1-26.1,20.1 M179.7,359.5h2.1c5,0,10.1-0.9,10.1-7c0-6.6-5.8-7-10.9-7h-1.3V359.5z M179.7,389h2.4
	c5.5,0,14.9,0.3,14.9-7.7c0-8.7-9.3-7.8-15.4-7.8h-1.9V389z"/>
    <path class="st1" d="M241.4,390.8l-5,12.5h-19.9l27.7-72.1h20.5l27.2,72.1h-20l-4.7-12.5 M254.5,353.5h-0.2l-7.7,23h15.6
	L254.5,353.5z"/>
    <path class="st1" d="M355.8,331.2v40.5c0,9.3-0.4,18.5-7.6,25.4c-6,5.9-15.5,8-23.9,8c-8.4,0-17.9-2.1-23.9-8
	c-7.2-7-7.6-16.2-7.6-25.4v-40.5h18.8v38c0,9.4,0.7,19.6,12.7,19.6s12.7-10.2,12.7-19.6v-38"/>
    <polyline class="st1" points="385.6,347.1 385.6,359.2 406.7,359.2 406.7,375.1 385.6,375.1 385.6,387.5 407.9,387.5 407.9,403.4
	366.9,403.4 366.9,331.2 407.9,331.2 407.9,347.1 "/>
    <path class="st1" d="M478.7,403.4h-23.3l-17.7-27.7h-0.2v27.7h-18.8v-72.1h28c14.3,0,25.1,6.8,25.1,22.2c0,10-5.5,18.6-15.8,20.4
	 M437.4,363.6h1.8c6.1,0,13-1.1,13-9c0-7.8-6.9-9-13-9h-1.8V363.6z"/>
</svg>
