<?xml version="1.0" encoding="utf-8"?>
<svg version="1.1" id="Ebene_1" xmlns="http://www.w3.org/2000/svg" x="0px" y="0px"
	 width="126px" height="60px" viewBox="0 0 126 60" style="enable-background:new 0 0 126 60;" xml:space="preserve">
<style type="text/css">
	.st0{fill:#285AA6;}
</style>
<g>
	<path class="st0" d="M88.7,45.9v-33h4.5c10.2,0,16.4,6.1,16.4,16.6c0,10.3-6.1,16.6-16.4,16.6L88.7,45.9L88.7,45.9z M81.4,52.8
		h11.9c14.3,0,23.7-8.9,23.7-23.4C117,15.1,107.7,6,93.3,6H81.4V52.8L81.4,52.8z M56.9,46.9c-5.6,0-9.5-4.4-9.5-9.9s4-10,9.5-10
		c5.7,0,9.5,4.5,9.5,10C66.5,42.5,62.6,46.9,56.9,46.9L56.9,46.9z M56.9,53.5c9.5,0,16.6-7.2,16.6-16.5s-7.1-16.5-16.6-16.5
		c-9.4,0-16.5,7.2-16.5,16.5S47.5,53.5,56.9,53.5L56.9,53.5z M7.3,24.4V12.9h7.5c4.6,0,7.5,1.9,7.5,5.7s-2.7,5.7-7.5,5.7H7.3V24.4z
		 M7.3,45.9V31.2h9.8c5.7,0,9.3,2.4,9.3,7.3c0,4.8-3.5,7.4-9.3,7.4H7.3L7.3,45.9z M0,52.8h18.1c9.1,0,15.7-5.6,15.7-14
		c0-5.3-3.1-10.1-7.4-12.2c2-2,3.5-5,3.5-8.2C29.9,11,24.2,6.1,16,6.1H0V52.8L0,52.8z"/>
</g>
</svg>
