<?xml version="1.0" encoding="UTF-8" standalone="no"?>
<svg
        xmlns="http://www.w3.org/2000/svg"
        xml:space="preserve"
        width="961.66302"
        height="338.91299"
        viewBox="0 0 961.66302 338.913">
    <defs id="defs4594"><clipPath  id="clipPath4608"><path d="M 0,0 H 738.425 V 283.465 H 0 Z" id="path4606" /></clipPath>
        <clipPath id="clipPath4636"><path d="M 0,0 H 738.425 V 283.465 H 0 Z" id="path4634" /></clipPath>
        <clipPath id="clipPath4656"><path d="M 0,0 H 738.425 V 283.465 H 0 Z" id="path4654" /></clipPath></defs>
    <g id="g4598" transform="matrix(1.3333333,0,0,-1.3333333,0,338.91303)"><g id="g4663"><path id="whitebg" style="fill:#ffffff;fill-opacity:1;fill-rule:nonzero;stroke:none;stroke-width:0.93627548" d="M 7.8613502e-6,-1.0400593 H 721.60487 V 254.18499 H 7.8613502e-6 Z" /></g>
        <g id="g4689" transform="translate(-15.545992,-14.505305)"><g id="g4602"><g clip-path="url(#clipPath4608)" id="g4604"><g transform="translate(370.1846,51.5684)" id="g4610"><path id="path4612" style="fill:#231f20;fill-opacity:1;fill-rule:nonzero;stroke:none" d="M 0,0 H 7.005 L 9.472,7.005 H 21.234 L 23.614,0 h 7.181 L 19.032,31.455 h -7.094 z m 15.376,23.701 h 0.088 L 19.429,12.159 H 11.277 Z M 55.114,22.776 H 48.857 V 10.838 c 0,-4.626 -1.452,-6.521 -4.845,-6.521 -2.908,0 -4.009,1.851 -4.009,5.595 V 22.776 H 33.747 V 8.767 c 0,-5.639 1.674,-9.384 8.327,-9.384 2.643,0 5.375,1.233 6.961,3.789 h 0.132 V 0 h 5.947 z M 62.119,0 h 6.256 v 18.592 h 4.316 v 4.184 h -4.316 v 1.367 c 0,1.893 0.705,2.598 2.379,2.598 0.793,0 1.542,-0.044 2.291,-0.132 v 4.67 c -1.058,0.044 -2.203,0.176 -3.304,0.176 -5.111,0 -7.622,-2.906 -7.622,-6.917 v -1.762 h -3.745 v -4.184 h 3.745 z m 14.758,0 h 6.256 V 7.842 L 85.557,10.177 91.813,0 h 7.577 l -9.56,14.405 8.591,8.371 H 91.02 l -7.887,-8.193 v 16.872 h -6.256 z m 25.772,0 h 6.257 v 31.455 h -6.257 z m 26.258,8.811 c 0,-1.366 -0.177,-5.243 -5.066,-5.243 -2.028,0 -3.833,0.573 -3.833,2.908 0,2.291 1.762,2.952 3.701,3.348 1.937,0.353 4.141,0.397 5.198,1.322 z m -8.194,6.96 c 0.22,2.467 1.762,3.438 4.141,3.438 2.203,0 4.053,-0.397 4.053,-3.084 0,-2.557 -3.568,-2.424 -7.401,-2.996 -3.877,-0.529 -7.754,-1.763 -7.754,-6.917 0,-4.67 3.436,-6.829 7.754,-6.829 2.775,0 5.682,0.749 7.666,2.819 0.044,-0.749 0.22,-1.498 0.44,-2.202 h 6.344 c -0.572,0.925 -0.793,2.995 -0.793,5.065 v 11.853 c 0,5.463 -5.463,6.476 -10,6.476 -5.111,0 -10.354,-1.762 -10.706,-7.623 z m 5.859,10.531 h 5.947 v 5.155 h -5.947 z m -9.075,0 h 5.947 v 5.155 h -5.947 z M 140.89,0 h 6.256 v 10.265 c 0,4.008 1.585,7.313 6.167,7.313 0.749,0 1.674,-0.089 2.248,-0.221 v 5.817 c -0.396,0.132 -0.925,0.22 -1.367,0.22 -3.039,0 -6.123,-1.984 -7.268,-4.846 h -0.088 v 4.228 h -5.948 z m 39.385,22.776 H 174.02 V 10.838 c 0,-4.626 -1.454,-6.521 -4.846,-6.521 -2.908,0 -4.009,1.851 -4.009,5.595 v 12.864 h -6.256 V 8.767 c 0,-5.639 1.674,-9.384 8.326,-9.384 2.644,0 5.375,1.233 6.961,3.789 h 0.133 V 0 h 5.946 z M 185.915,0 h 6.256 v 11.938 c 0,4.626 1.454,6.522 4.846,6.522 2.908,0 4.008,-1.852 4.008,-5.597 V 0 h 6.257 v 14.01 c 0,5.638 -1.675,9.384 -8.326,9.384 -2.644,0 -5.375,-1.235 -6.961,-3.79 h -0.133 v 3.172 h -5.947 z m 48.901,22.776 h -5.947 v -3.04 h -0.088 c -1.498,2.645 -3.788,3.658 -6.784,3.658 -6.39,0 -9.781,-5.375 -9.781,-11.279 0,-6.256 2.908,-11.455 9.737,-11.455 2.731,0 5.463,1.146 6.828,3.525 h 0.088 V 1.189 c 0.045,-3.26 -1.542,-5.639 -5.022,-5.639 -2.203,0 -4.097,0.793 -4.67,3.128 h -6.212 c 0.307,-5.199 5.551,-7.314 10.045,-7.314 10.485,0 11.806,6.345 11.806,10.089 z M 223.539,5.375 c -3.833,0 -5.067,3.567 -5.067,6.828 0,3.393 1.542,6.477 5.067,6.477 4.053,0 5.33,-3.304 5.33,-7.005 0,-3.261 -1.763,-6.3 -5.33,-6.3" /></g>
<g transform="translate(394.7676,128.3447)" id="g4614"><path id="path4616" style="fill:#231f20;fill-opacity:1;fill-rule:nonzero;stroke:none" d="m 0,0 h -5.947 v -3.04 h -0.089 c -1.497,2.644 -3.788,3.657 -6.783,3.657 -6.39,0 -9.782,-5.375 -9.782,-11.279 0,-6.256 2.909,-11.453 9.738,-11.453 2.73,0 5.463,1.144 6.827,3.523 h 0.089 v -2.996 c 0.044,-3.26 -1.542,-5.639 -5.023,-5.639 -2.203,0 -4.096,0.793 -4.67,3.128 h -6.212 c 0.308,-5.199 5.551,-7.313 10.045,-7.313 10.486,0 11.807,6.345 11.807,10.09 z m -11.277,-17.401 c -3.833,0 -5.068,3.567 -5.068,6.828 0,3.392 1.542,6.476 5.068,6.476 4.052,0 5.33,-3.303 5.33,-7.005 0,-3.259 -1.763,-6.299 -5.33,-6.299 m 38.768,4.493 C 27.932,-5.903 24.187,0.617 16.434,0.617 9.517,0.617 4.803,-4.582 4.803,-11.41 c 0,-7.05 4.449,-11.984 11.631,-11.984 5.153,0 8.898,2.291 10.661,7.666 h -5.508 c -0.396,-1.41 -2.423,-2.952 -4.934,-2.952 -3.48,0 -5.419,1.806 -5.594,5.772 z m -16.432,3.966 c 0.087,1.761 1.232,4.845 5.197,4.845 3.04,0 4.406,-1.674 4.979,-4.845 z m 19.913,-6.434 c 0.263,-6.034 5.419,-8.018 10.706,-8.018 5.197,0 10.396,1.939 10.396,7.93 0,4.231 -3.569,5.551 -7.224,6.389 -3.57,0.837 -7.094,1.145 -7.094,3.392 0,1.85 2.07,2.115 3.48,2.115 2.247,0 4.097,-0.661 4.274,-3.084 h 5.947 c -0.483,5.595 -5.065,7.269 -10.045,7.269 -4.89,0 -9.912,-1.498 -9.912,-7.313 0,-4.01 3.612,-5.286 7.226,-6.079 4.494,-0.971 7.092,-1.63 7.092,-3.526 0,-2.203 -2.291,-2.908 -4.096,-2.908 -2.469,0 -4.759,1.103 -4.804,3.833 z M 77.979,0 h -6.255 v -11.938 c 0,-4.626 -1.454,-6.522 -4.848,-6.522 -2.906,0 -4.009,1.852 -4.009,5.597 V 0 h -6.256 v -14.01 c 0,-5.638 1.674,-9.384 8.327,-9.384 2.643,0 5.375,1.235 6.961,3.79 h 0.132 v -3.172 h 5.948 z m 5.638,-22.776 h 6.256 v 11.938 c 0,4.626 1.454,6.521 4.847,6.521 2.907,0 4.009,-1.851 4.009,-5.596 v -12.863 h 6.255 v 14.009 c 0,5.639 -1.673,9.384 -8.326,9.384 -2.643,0 -5.375,-1.233 -6.961,-3.789 H 89.565 V 0 h -5.948 z m 43.263,0 h 5.948 V 8.68 h -6.256 V -2.775 h -0.089 c -1.409,2.247 -4.052,3.392 -6.74,3.392 -6.697,0 -10.089,-5.682 -10.089,-11.806 0,-6.3 3.348,-12.205 10.221,-12.205 2.908,0 5.463,1.057 6.917,3.526 h 0.088 z m -0.088,11.455 c 0,-3.745 -1.233,-7.359 -5.375,-7.359 -3.877,0 -5.507,3.745 -5.507,7.314 0,3.744 1.41,7.269 5.507,7.269 4.054,0 5.375,-3.525 5.375,-7.224 m 11.63,-11.455 h 6.257 v 11.938 c 0,4.626 1.454,6.521 4.846,6.521 2.908,0 4.009,-1.851 4.009,-5.596 v -12.863 h 6.256 v 14.009 c 0,5.639 -1.674,9.384 -8.327,9.384 -2.335,0 -5.066,-1.233 -6.651,-3.789 h -0.133 V 8.68 h -6.257 z m 48.595,9.868 c 0.44,7.005 -3.305,13.525 -11.059,13.525 -6.917,0 -11.631,-5.199 -11.631,-12.027 0,-7.05 4.45,-11.984 11.631,-11.984 5.154,0 8.899,2.291 10.662,7.666 h -5.508 c -0.395,-1.41 -2.423,-2.952 -4.933,-2.952 -3.481,0 -5.419,1.806 -5.596,5.772 z m -16.434,3.966 c 0.088,1.761 1.234,4.845 5.199,4.845 3.04,0 4.405,-1.674 4.979,-4.845 z m 21.191,-13.834 h 6.256 V 0 h -6.256 z M 198.03,8.68 h -6.256 V 3.525 h 6.256 z M 211.775,6.829 H 205.52 V 0 h -3.79 v -4.185 h 3.79 v -13.438 c 0,-4.536 3.347,-5.419 7.18,-5.419 1.235,0 2.601,0.045 3.657,0.222 v 4.889 c -0.661,-0.131 -1.278,-0.175 -1.938,-0.175 -2.114,0 -2.644,0.527 -2.644,2.642 v 11.279 h 4.582 V 0 h -4.582 z m 8.635,-29.605 h 6.256 V 8.68 h -6.256 z m 12.247,0 h 6.256 V 0 h -6.256 z m 6.256,31.456 h -6.256 V 3.525 h 6.256 z M 266.36,-8.018 c -0.396,5.816 -5.331,8.635 -10.706,8.635 -7.401,0 -11.63,-5.243 -11.63,-12.336 0,-6.829 4.626,-11.675 11.498,-11.675 5.993,0 10.177,3.304 10.97,9.34 h -6.035 c -0.396,-2.776 -2.07,-4.626 -4.978,-4.626 -3.921,0 -5.199,3.921 -5.199,7.181 0,3.35 1.322,7.402 5.33,7.402 2.6,0 4.23,-1.366 4.626,-3.921 z m 4.538,-14.758 h 6.256 v 11.938 c 0,4.626 1.453,6.521 4.846,6.521 2.908,0 4.01,-1.851 4.01,-5.596 v -12.863 h 6.256 v 14.009 c 0,5.639 -1.674,9.384 -8.328,9.384 -2.334,0 -5.066,-1.233 -6.652,-3.789 h -0.132 V 8.68 h -6.256 z m 48.593,9.868 c 0.442,7.005 -3.304,13.525 -11.057,13.525 -6.917,0 -11.631,-5.199 -11.631,-12.027 0,-7.05 4.449,-11.984 11.631,-11.984 5.154,0 8.898,2.291 10.662,7.666 h -5.508 c -0.397,-1.41 -2.423,-2.952 -4.935,-2.952 -3.479,0 -5.419,1.806 -5.594,5.772 z m -16.432,3.966 c 0.087,1.761 1.233,4.845 5.199,4.845 3.039,0 4.404,-1.674 4.977,-4.845 z" /></g>
<g transform="translate(374.2373,151.168)" id="g4618"><path id="path4620" style="fill:#231f20;fill-opacity:1;fill-rule:nonzero;stroke:none" d="m 0,0 h 6.256 v 18.592 h 4.318 v 4.185 H 6.256 v 1.366 c 0,1.894 0.705,2.599 2.38,2.599 0.793,0 1.542,-0.044 2.291,-0.132 v 4.67 C 9.869,31.324 8.724,31.456 7.622,31.456 2.512,31.456 0,28.549 0,24.539 V 22.777 H -3.745 V 18.592 H 0 Z M 35.554,22.777 H 29.297 V 10.838 c 0,-4.626 -1.453,-6.52 -4.846,-6.52 -2.908,0 -4.009,1.85 -4.009,5.595 V 22.777 H 14.187 V 8.767 c 0,-5.639 1.673,-9.384 8.327,-9.384 2.642,0 5.374,1.234 6.96,3.789 h 0.132 V 0 h 5.948 z m -9.119,3.525 h 5.947 v 5.155 h -5.947 z m -9.077,0 h 5.948 v 5.155 H 17.358 Z M 41.192,0 h 6.256 v 10.265 c 0,4.009 1.586,7.314 6.168,7.314 0.749,0 1.674,-0.089 2.247,-0.221 v 5.816 c -0.397,0.132 -0.925,0.22 -1.366,0.22 -3.04,0 -6.124,-1.983 -7.268,-4.846 H 47.14 v 4.229 h -5.948 z" /></g>
<g transform="translate(380.4492,216.1777)" id="g4622"><path id="path4624" style="fill:#231f20;fill-opacity:1;fill-rule:nonzero;stroke:none" d="m 0,0 h 7.534 c 2.951,0 4.979,-1.278 4.979,-4.494 0,-3.26 -2.379,-4.141 -5.112,-4.141 H 0 Z M -6.917,-14.01 H 8.327 c 5.684,0 11.103,2.732 11.103,9.12 0,3.921 -1.94,6.873 -5.772,7.974 2.732,1.322 4.274,3.48 4.274,6.564 0,5.86 -4.054,7.798 -10.045,7.798 H -6.917 Z M 0,12.071 h 6.477 c 2.466,0 4.757,-0.616 4.757,-3.612 0,-2.644 -1.805,-3.745 -4.229,-3.745 H 0 Z M 45.687,8.767 H 39.431 V -3.172 c 0,-4.626 -1.454,-6.52 -4.847,-6.52 -2.907,0 -4.009,1.85 -4.009,5.595 V 8.767 h -6.256 v -14.01 c 0,-5.639 1.674,-9.384 8.327,-9.384 2.643,0 5.375,1.234 6.96,3.789 h 0.133 v -3.172 h 5.948 z m 5.638,-22.777 h 6.256 v 11.939 c 0,4.626 1.454,6.521 4.847,6.521 2.907,0 4.009,-1.851 4.009,-5.595 V -14.01 h 6.255 V 0 c 0,5.639 -1.673,9.384 -8.326,9.384 -2.643,0 -5.375,-1.234 -6.961,-3.789 h -0.132 v 3.172 h -5.948 z m 43.263,0 h 5.947 V 17.446 H 94.279 V 5.992 h -0.088 c -1.41,2.247 -4.052,3.392 -6.74,3.392 -6.697,0 -10.089,-5.683 -10.089,-11.807 0,-6.3 3.348,-12.204 10.221,-12.204 2.908,0 5.463,1.058 6.917,3.525 h 0.088 z M 94.5,-2.555 c 0,-3.745 -1.233,-7.358 -5.375,-7.358 -3.877,0 -5.507,3.745 -5.507,7.314 0,3.744 1.409,7.269 5.507,7.269 4.054,0 5.375,-3.525 5.375,-7.225 m 33.219,-1.586 c 0.439,7.005 -3.305,13.525 -11.059,13.525 -6.917,0 -11.631,-5.199 -11.631,-12.027 0,-7.049 4.45,-11.984 11.631,-11.984 5.154,0 8.9,2.291 10.661,7.666 h -5.507 c -0.396,-1.41 -2.422,-2.952 -4.934,-2.952 -3.48,0 -5.419,1.807 -5.595,5.772 z m -16.434,3.965 c 0.088,1.762 1.234,4.846 5.198,4.846 3.04,0 4.407,-1.674 4.979,-4.846 z m 19.913,-6.432 c 0.264,-6.036 5.419,-8.019 10.706,-8.019 5.199,0 10.398,1.939 10.398,7.93 0,4.23 -3.57,5.552 -7.226,6.389 -3.568,0.837 -7.093,1.145 -7.093,3.392 0,1.85 2.071,2.115 3.48,2.115 2.247,0 4.098,-0.661 4.273,-3.084 h 5.949 c -0.486,5.595 -5.067,7.269 -10.045,7.269 -4.891,0 -9.912,-1.498 -9.912,-7.313 0,-4.009 3.612,-5.287 7.224,-6.08 4.494,-0.969 7.093,-1.63 7.093,-3.525 0,-2.202 -2.291,-2.907 -4.097,-2.907 -2.468,0 -4.759,1.101 -4.802,3.833 z m 24.231,-7.402 h 20.926 v 4.714 H 163.667 L 175.519,4.053 V 8.767 H 156.31 V 4.053 h 10.969 l -11.85,-13.349 z m 46.743,9.869 c 0.441,7.005 -3.304,13.525 -11.058,13.525 -6.917,0 -11.631,-5.199 -11.631,-12.027 0,-7.049 4.451,-11.984 11.631,-11.984 5.155,0 8.9,2.291 10.662,7.666 h -5.507 c -0.397,-1.41 -2.423,-2.952 -4.935,-2.952 -3.48,0 -5.419,1.807 -5.595,5.772 z m -16.433,3.965 c 0.088,1.762 1.235,4.846 5.199,4.846 3.041,0 4.406,-1.674 4.978,-4.846 z m 21.014,-13.834 h 6.257 v 11.939 c 0,4.626 1.453,6.521 4.846,6.521 2.908,0 4.009,-1.851 4.009,-5.595 V -14.01 h 6.256 V 0 c 0,5.639 -1.674,9.384 -8.327,9.384 -2.643,0 -5.375,-1.234 -6.961,-3.789 h -0.132 v 3.172 h -5.948 z m 34.937,29.606 h -6.255 V 8.767 h -3.789 V 4.582 h 3.789 V -8.855 c 0,-4.538 3.347,-5.419 7.18,-5.419 1.234,0 2.6,0.044 3.657,0.22 v 4.89 c -0.661,-0.132 -1.278,-0.176 -1.939,-0.176 -2.114,0 -2.643,0.529 -2.643,2.643 V 4.582 h 4.582 v 4.185 h -4.582 z m 8.458,-29.606 h 6.256 v 10.265 c 0,4.009 1.586,7.314 6.168,7.314 0.749,0 1.674,-0.089 2.247,-0.221 v 5.816 c -0.397,0.132 -0.924,0.22 -1.366,0.22 -3.04,0 -6.124,-1.983 -7.268,-4.846 h -0.088 v 4.229 h -5.949 z m 32.206,8.811 c 0,-1.365 -0.176,-5.242 -5.068,-5.242 -2.025,0 -3.832,0.572 -3.832,2.907 0,2.291 1.763,2.952 3.7,3.349 1.94,0.352 4.142,0.396 5.2,1.321 z m -8.196,6.961 c 0.221,2.467 1.763,3.437 4.143,3.437 2.201,0 4.053,-0.397 4.053,-3.084 0,-2.556 -3.57,-2.423 -7.403,-2.996 -3.877,-0.529 -7.754,-1.762 -7.754,-6.917 0,-4.67 3.438,-6.829 7.754,-6.829 2.777,0 5.685,0.749 7.666,2.82 0.044,-0.749 0.22,-1.498 0.442,-2.203 h 6.343 c -0.573,0.925 -0.793,2.996 -0.793,5.067 V 2.908 c 0,5.463 -5.463,6.476 -10.001,6.476 -5.11,0 -10.352,-1.762 -10.706,-7.622 z m 20.355,-15.772 h 6.256 v 31.456 h -6.256 z m 33.658,9.869 c 0.44,7.005 -3.304,13.525 -11.058,13.525 -6.917,0 -11.631,-5.199 -11.631,-12.027 0,-7.049 4.451,-11.984 11.631,-11.984 5.155,0 8.9,2.291 10.661,7.666 h -5.506 c -0.397,-1.41 -2.423,-2.952 -4.935,-2.952 -3.479,0 -5.419,1.807 -5.595,5.772 z m -16.433,3.965 c 0.088,1.762 1.234,4.846 5.199,4.846 3.04,0 4.406,-1.674 4.978,-4.846 z" /></g></g></g>
            <g transform="translate(342.272,14.5693)" id="g4626"><path id="path4628" style="fill:#9c9a9b;fill-opacity:1;fill-rule:nonzero;stroke:none" d="M 0,0 V 254.121 H -326.726 V 0 h 157.089 v -0.064 h 70.866 V 0 Z" /></g>
            <g id="g4630"><g clip-path="url(#clipPath4636)" id="g4632"><g transform="translate(35.1543,137.6514)" id="g4638"><path id="path4640" style="fill:#ffffff;fill-opacity:1;fill-rule:nonzero;stroke:none" d="m 0,0 h 38.011 c 31.444,0 33.212,-19.003 33.212,-22.54 0,-5.197 -2.02,-12.513 -8.716,-17.707 5.431,-3.897 10.989,-11.445 10.989,-21.713 0,-4.487 -1.39,-11.565 -9.599,-18.177 -6.314,-5.075 -16.54,-5.897 -22.351,-5.897 H 0 Z m 18.941,-34.342 h 21.468 c 8.081,0 12.752,2.947 12.752,9.794 0,7.434 -5.173,9.793 -11.743,9.793 H 18.941 Z m 0,-36.942 h 22.227 c 5.684,0 14.267,0.236 14.267,12.038 0,9.676 -7.198,10.151 -10.733,10.151 H 18.941 Z" /></g></g></g>
            <g transform="translate(177.5854,137.6494)" id="g4642"><path id="path4644" style="fill:#ffffff;fill-opacity:1;fill-rule:nonzero;stroke:none" d="m 0,0 v -14.753 l -47.103,-56.531 h 46.178 v -14.75 h -67.351 v 14.75 l 46.053,56.531 H -68.276 V 0 Z" /></g>
            <g transform="translate(329.0391,51.6152)" id="g4646"><path id="path4648" style="fill:#ffffff;fill-opacity:1;fill-rule:nonzero;stroke:none" d="m 0,0 h -19.32 l -6.316,17.23 H -59.732 L -66.173,0 H -85.49 l 32.07,86.034 h 21.85 z m -53.798,31.983 h 23.616 l -12.25,33.399 z" /></g>
            <g id="g4650"><g clip-path="url(#clipPath4656)" id="g4652"><g transform="translate(215.8608,65.3906)" id="g4658"><path id="path4660" style="fill:#ffffff;fill-opacity:1;fill-rule:nonzero;stroke:none" d="m 0,0 c 1.955,1.033 3.571,2.409 4.847,4.132 1.276,1.721 2.232,3.68 2.87,5.874 0.638,2.195 0.957,4.497 0.957,6.908 0,2.753 -0.256,5.358 -0.766,7.812 -0.51,2.452 -1.361,4.626 -2.551,6.519 -1.192,1.892 -2.764,3.4 -4.719,4.52 -1.957,1.116 -4.423,1.677 -7.398,1.677 -2.551,0 -4.742,-0.516 -6.569,-1.548 -1.83,-1.034 -3.36,-2.434 -4.592,-4.197 -1.234,-1.764 -2.127,-3.789 -2.679,-6.069 -0.554,-2.28 -0.829,-4.67 -0.829,-7.165 0,-2.411 0.233,-4.799 0.702,-7.166 0.466,-2.368 1.275,-4.499 2.423,-6.391 1.148,-1.894 2.657,-3.443 4.528,-4.648 1.87,-1.206 4.21,-1.807 7.016,-1.807 2.551,0 4.803,0.516 6.76,1.549 m 24.809,-22.207 c -0.723,-3.441 -2.276,-6.648 -4.656,-9.619 -2.381,-2.969 -5.825,-5.487 -10.331,-7.553 -4.509,-2.066 -10.545,-3.098 -18.113,-3.098 -3.233,0 -6.527,0.41 -9.885,1.226 -3.36,0.819 -6.422,2.088 -9.184,3.81 -2.764,1.722 -5.06,3.937 -6.888,6.648 -1.829,2.711 -2.87,5.961 -3.125,9.748 h 17.985 c 0.849,-3.442 2.507,-5.83 4.975,-7.166 2.465,-1.333 5.313,-2.001 8.546,-2.001 5.102,0 8.821,1.549 11.16,4.649 2.338,3.098 3.464,7.015 3.381,11.749 v 8.779 H 8.418 c -1.957,-3.53 -4.741,-6.133 -8.354,-7.812 -3.616,-1.677 -7.42,-2.517 -11.416,-2.517 -4.933,0 -9.184,0.882 -12.755,2.647 -3.572,1.763 -6.506,4.174 -8.802,7.23 -2.296,3.054 -3.976,6.628 -5.038,10.716 -1.064,4.087 -1.594,8.413 -1.594,12.976 0,4.303 0.616,8.456 1.849,12.459 1.232,4.002 3.04,7.531 5.421,10.587 2.38,3.054 5.335,5.487 8.865,7.295 3.528,1.808 7.589,2.711 12.181,2.711 4.337,0 8.142,-0.819 11.416,-2.453 3.273,-1.636 6.015,-4.39 8.227,-8.263 h 0.256 v 8.908 H 25.893 V -13.04 c 0,-2.669 -0.363,-5.723 -1.084,-9.167" /></g></g></g></g></g>
</svg>
