<svg xmlns="http://www.w3.org/2000/svg" xmlns:xlink="http://www.w3.org/1999/xlink" x="0px" y="0px"
	 width="373.939px" height="63.03px" viewBox="0 0 373.939 63.03">

	 <path fill="#FFFFFF" d="M12.51,15.416c1.116-0.279,2.232-0.558,3.349-0.837c1.396,0,2.512,0,3.628,0
		c5.302,0,9.768,1.674,13.116,4.744c3.349,3.349,5.023,7.535,5.023,12.837c0,5.303-1.675,9.488-5.023,12.838
		c-3.349,3.349-7.535,5.023-12.559,5.023c-0.837,0-1.953,0-3.069-0.279c-1.116,0-2.512-0.279-4.187-0.559V15.416H12.51z
		 M16.416,55.044c5.582,0,10.047-0.558,13.396-1.675c3.349-1.115,6.419-3.069,8.931-5.581c1.953-2.232,3.349-4.465,4.465-7.255
		c1.116-2.512,1.396-5.582,1.396-8.652c0-3.349-0.559-6.418-1.954-9.488c-1.395-2.791-3.349-5.302-5.86-7.256
		c-2.232-1.954-5.022-3.349-7.534-3.907c-2.791-0.837-6.14-1.116-10.605-1.116H2.742c0.837,0.837,1.674,1.674,1.953,2.791
		c0.279,1.116,0.559,2.791,0.559,5.023V47.23c0,2.232-0.279,4.186-0.559,5.023c-0.279,1.115-1.116,1.953-1.953,2.79H16.416
		L16.416,55.044z M76.695,55.044l3.07-8.931c-1.954,1.396-3.907,2.233-6.14,2.791c-1.954,0.559-4.187,0.838-6.419,0.838
		c-1.116,0-2.232,0-3.628-0.279c-1.396,0-3.069-0.279-4.744-0.559V32.998h4.187c2.232,0,3.906,0,5.022,0.279
		c0.838,0.278,1.675,0.558,2.232,1.395v-6.698H59.114V15.416c1.396-0.279,2.512-0.558,3.628-0.558
		c1.116-0.279,2.232-0.279,3.069-0.279c1.675,0,3.349,0.279,4.465,0.558c1.396,0.279,2.512,1.116,3.628,1.954V9.835H49.067
		c0.837,0.837,1.675,1.953,1.954,2.791c0.278,1.116,0.558,2.791,0.558,5.023v29.302c0,2.232-0.279,3.906-0.558,5.023
		c-0.279,1.116-1.117,1.953-1.954,3.069H76.695L76.695,55.044z M94.835,14.858c1.116-0.279,1.953-0.279,2.791-0.558
		c0.837,0,1.396,0,1.953,0c2.512,0,4.744,0.837,6.14,2.233c1.675,1.395,2.512,3.349,2.512,5.581c0,2.512-0.837,4.465-2.791,6.14
		c-1.953,1.674-4.744,2.791-8.93,3.628l13.395,18.698c1.117,1.396,2.512,2.79,3.907,3.628c1.675,0.837,3.07,1.395,4.744,1.395h0.559
		l3.628-0.278c-1.396-1.116-2.512-2.232-3.349-3.349c-1.117-1.117-1.954-1.953-2.512-3.07L105.16,33.277
		c3.35-1.396,6.14-3.07,7.814-5.024c1.674-1.954,2.512-4.186,2.512-6.418c0-3.349-1.396-6.14-4.187-8.372
		c-2.79-2.233-6.418-3.07-10.884-3.07H84.788c0.838,0.837,1.675,1.954,1.954,2.791c0.279,1.116,0.558,2.791,0.558,5.023V47.51
		c0,2.232-0.278,3.906-0.558,5.022s-1.116,1.954-1.954,3.069h12.559c-1.116-0.836-1.675-1.953-1.953-3.069
		c-0.279-1.116-0.559-2.79-0.559-5.022V14.858L94.835,14.858z M136.416,55.044c-1.116-0.837-1.674-1.675-2.232-2.232
		c-0.279-0.837-0.558-1.675-0.558-2.79c0-0.279,0-0.559,0-1.117c0-0.279,0.278-1.116,0.278-1.953l4.744-29.86l12.559,30.419
		c0.837,2.232,1.675,3.906,2.791,5.023c0.837,1.115,1.953,2.232,3.069,3.068l15.628-38.511l3.628,31.813c0,0,0,0.279,0,0.559
		s0,0.279,0,0.559c0,1.115-0.279,1.953-0.558,3.069c-0.279,0.837-1.117,1.675-1.954,2.232h12.279
		c-0.837-1.116-1.675-1.954-2.232-3.349c-0.559-1.117-0.838-2.512-1.116-3.907l-3.628-31.256c0-0.279,0-0.558,0-1.116
		c0-0.279,0-0.837,0-1.396c0-1.116,0.279-1.953,0.558-2.791c0.279-0.837,0.838-1.396,1.396-1.954h-10.884l-13.396,33.488
		L143.114,9.556h-11.442c1.116,0.837,1.675,1.674,1.954,2.232c0,0.837,0.278,1.396,0.278,1.954c0,0.279,0,0.837,0,1.396
		s0,1.116-0.278,1.954L129.16,47.51c-0.278,1.674-0.558,3.069-1.395,4.186c-0.559,1.116-1.396,2.232-2.512,3.628h11.162V55.044z
		 M212.882,16.253l6.418,17.582h-13.396L212.882,16.253L212.882,16.253z M204.23,38.021h17.023l3.906,10.325
		c0,0,0,0.278,0.279,0.558c0.559,1.396,0.837,2.232,0.837,3.07c0,0.559-0.558,1.395-1.674,2.791l-0.279,0.278h12.837
		c-1.116-1.116-2.232-1.953-3.069-3.069c-0.837-1.117-1.396-2.512-2.232-4.187L217.347,9.835h-10.325
		c0.558,0.558,0.837,0.837,1.116,1.395c0.278,0.558,0.278,0.837,0.278,1.396s0,1.116-0.278,1.674c0,0.558-0.279,1.116-0.559,1.674
		l-12.837,32.373c-0.838,1.953-1.396,3.349-2.232,4.465c-0.838,1.116-1.396,1.954-2.512,2.512h10.604
		c-0.559-0.558-1.116-1.116-1.396-1.675c-0.279-0.558-0.558-1.115-0.558-1.395c0-0.559,0-1.117,0.278-1.396
		c0-0.558,0.279-0.836,0.559-1.395L204.23,38.021L204.23,38.021z M266.742,55.044l3.069-8.931c-1.953,1.396-3.907,2.233-6.14,2.791
		c-1.953,0.559-4.186,0.838-6.418,0.838c-1.116,0-2.233,0-3.628-0.279c-1.396,0-3.07-0.279-4.744-0.559V17.649
		c0-2.233,0.278-3.907,0.558-5.023s1.116-1.954,1.953-2.791h-12.558c0.837,0.837,1.675,1.953,1.953,2.791
		c0.279,1.116,0.559,2.791,0.559,5.023v29.302c0,2.232-0.279,3.906-0.559,5.023c-0.278,1.116-1.116,1.953-1.953,3.069H266.742
		L266.742,55.044z M307.765,19.044c3.349,3.628,4.744,8.093,4.744,13.675c0,5.303-1.674,9.768-5.022,13.395
		c-3.35,3.35-7.535,5.303-12.559,5.303c-4.744,0-8.93-1.953-12-5.581c-3.349-3.628-4.744-8.372-4.744-13.675
		c0-5.302,1.675-9.767,5.023-13.116c3.349-3.349,7.535-5.302,12.559-5.302C300.509,13.463,304.695,15.416,307.765,19.044
		 M304.695,54.486c2.791-1.117,5.581-2.791,7.813-4.744c2.512-2.232,4.466-5.023,5.86-8.094c1.396-3.069,1.954-6.139,1.954-9.209
		c0-3.349-0.559-6.698-1.954-9.488c-1.116-3.07-3.069-5.582-5.302-7.814c-2.232-1.954-4.744-3.628-7.814-4.744
		c-3.069-1.116-6.418-1.674-9.767-1.674c-4.187,0-7.814,0.837-11.442,2.511c-3.349,1.675-6.418,4.186-8.65,7.256
		c-1.396,1.954-2.791,4.186-3.35,6.698c-1.116,2.512-1.396,5.023-1.396,7.535c0,3.349,0.559,6.418,1.954,9.209
		c1.116,3.07,3.069,5.582,5.302,7.814c2.233,1.953,4.744,3.627,7.814,4.744c3.069,1.115,6.419,1.674,9.768,1.674
		S301.904,55.602,304.695,54.486 M360.509,10.114c-2.232-0.558-4.186-0.837-6.14-1.116c-1.674-0.279-3.628-0.279-5.022-0.279
		c-3.628,0-6.698,0.558-9.768,1.674c-3.07,1.116-5.582,2.791-8.093,4.744c-2.512,2.232-4.466,5.023-5.861,8.093
		c-1.395,3.07-1.953,6.14-1.953,9.489c0,4.186,0.837,7.814,2.791,11.441c1.953,3.35,4.465,6.14,7.813,8.373
		c1.954,1.395,4.466,2.232,6.977,2.79c2.512,0.558,5.303,0.837,8.651,0.837c2.232,0,4.465-0.279,6.977-0.559
		c2.512-0.278,5.303-0.836,8.094-1.395V32.16h-8.931c1.116,0.838,1.675,1.953,1.953,2.791c0.279,1.116,0.559,2.791,0.559,5.023
		v9.488c-1.675,0.559-3.069,0.837-4.744,1.116c-1.396,0.278-2.791,0.278-4.187,0.278c-5.581,0-10.325-1.674-13.674-5.022
		s-5.023-8.093-5.023-13.954c0-5.582,1.675-10.046,4.744-13.396c3.349-3.349,7.535-5.023,12.559-5.023
		c1.953,0,3.906,0.279,5.86,0.837c1.953,0.558,3.906,1.396,5.86,2.791v-6.977H360.509z"/>
</svg>
