<?xml version="1.0" encoding="utf-8"?>
<svg version="1.1" id="Layer_1" xmlns="http://www.w3.org/2000/svg" x="0px"
	 y="0px"
	 viewBox="0 0 512 512" style="enable-background:new 0 0 512 512;" xml:space="preserve">
<style type="text/css">
	.st0{fill:#000088;}
</style>
    <g id="XMLID_1_">
	<path id="XMLID_6_" class="st0" d="M433.59,282.21l38.15-52.46h18.1l-38.15,52.46H433.59z M411.42,205.62H512v100.72H411.42V205.62
		z M425.45,219.79v72.52h72.38v-72.52H425.45z"/>
        <path id="XMLID_9_" class="st0" d="M22.3,270.01l-1.96-1.12l-2.1-0.7l-2.24-0.56l-2.1-0.14H5.33v33.81h7.29l3.23-0.28l2.67-0.56
		l2.38-0.84l1.96-1.12l1.68-1.54l1.26-1.96l0.98-2.1l0.7-2.52l0.42-2.81l0.14-3.23l-0.14-2.67l-0.42-2.67l-0.7-2.52l-0.98-2.38
		l-1.54-2.1L22.3,270.01z M16.69,305.36l-3.51,0.28H0v-42.5h11.92l2.81,0.14l3.09,0.28l2.81,0.56l2.67,0.84l2.67,1.4l2.1,1.82
		l1.82,1.96l1.4,2.52l0.98,2.52l0.7,2.81l0.42,3.09l0.14,3.09l-0.14,3.37l-0.56,3.23l-0.84,2.95l-1.12,2.67l-1.54,2.38l-1.82,1.96
		l-2.24,1.82l-2.52,1.4l-3.09,0.98L16.69,305.36z"/>
        <path id="XMLID_12_" class="st0" d="M50.92,279.13l-2.1,0.28l-1.82,0.84l-1.54,0.98l-1.12,1.54l-0.84,1.82l-0.56,1.82l-0.28,2.1
		h15.85l-0.14-1.96l-0.42-1.96l-0.7-1.82l-1.12-1.4l-1.4-1.12l-1.68-0.84L50.92,279.13z M42.5,291.89v0.56l0.14,1.96l0.42,1.82
		l0.7,1.82l0.84,1.68l1.26,1.26l1.4,0.98l1.68,0.56l1.96,0.28l1.96-0.28l1.68-0.56l1.4-0.98l1.12-1.4l0.84-1.68l0.42-1.96h4.77
		l-0.7,2.81l-1.12,2.24l-1.54,1.82l-1.82,1.4l-2.24,0.98l-2.52,0.56l-2.67,0.28l-2.81-0.28l-2.38-0.7l-2.1-1.12l-1.82-1.26
		l-1.4-1.82l-1.12-2.1l-0.84-2.38l-0.56-2.67l-0.14-2.81l0.14-2.81l0.56-2.67l0.84-2.52l1.12-1.68l1.54-1.96l1.82-1.68l2.24-1.12
		l2.52-0.7l2.95-0.28l2.81,0.28l2.24,0.56l1.96,0.98l1.54,1.4l1.26,1.54l0.98,1.96l0.84,2.1l0.42,2.24l0.28,2.52l0.14,2.52
		L42.5,291.89L42.5,291.89z"/>
        <polygon id="XMLID_13_" class="st0" points="88.23,305.64 87.95,301.01 86.41,302.83 85.01,304.37 83.18,305.22 81.08,305.78
		78.69,306.06 76.17,305.78 74.06,305.22 72.24,304.37 70.84,302.97 69.72,301.43 69.16,299.32 68.59,297.08 68.45,294.56
		68.45,276.18 73.64,276.18 73.64,294.13 73.64,295.82 73.92,297.36 74.35,298.62 74.91,299.75 75.75,300.87 76.87,301.57
		78.27,301.99 80.1,302.13 82.2,301.85 83.88,301.29 85.29,300.31 86.27,298.9 87.11,297.5 87.67,295.68 87.81,293.71 87.95,291.75
		87.95,276.18 92.86,276.18 92.86,298.06 93,305.64 	"/>
        <polygon id="XMLID_14_" class="st0" points="109.27,306.06 107.17,305.92 105.49,305.36 104.22,304.37 103.1,303.11 102.54,301.43
		102.26,299.18 102.26,279.69 96.79,279.69 96.79,276.18 102.26,276.18 102.26,270.29 107.31,268.32 107.31,276.18 113.62,276.18
		113.62,279.69 107.31,279.69 107.31,298.62 107.45,299.89 107.87,300.87 108.57,301.57 109.69,301.85 111.24,301.99 113.9,301.71
		113.9,305.64 111.66,305.92 	"/>
        <polygon id="XMLID_15_" class="st0" points="127.79,306.34 125.55,306.2 123.58,305.78 121.62,305.22 119.93,304.09 118.53,302.83
		117.55,301.29 116.85,299.18 116.57,296.66 121.62,296.66 121.76,298.48 122.46,300.03 123.3,301.29 124.7,301.99 126.11,302.55
		128.07,302.69 129.61,302.55 131.02,302.27 132.42,301.57 133.4,300.45 134.24,299.32 134.52,297.78 134.24,296.52 133.68,295.26
		132.84,294.41 131.86,293.71 129.89,293.01 127.79,292.45 125.97,292.03 124.42,291.61 122.74,290.91 121.34,290.35 120.07,289.51
		118.95,288.38 118.11,287.26 117.55,285.72 117.41,283.89 117.55,281.79 118.39,279.97 119.51,278.42 120.92,277.44 122.6,276.46
		124.42,275.9 126.39,275.48 128.21,275.34 130.31,275.48 132.28,275.9 133.96,276.46 135.5,277.44 136.77,278.7 137.89,280.11
		138.45,282.07 138.73,284.32 133.68,284.32 133.4,282.49 132.7,280.95 131.44,279.97 130.03,279.27 128.07,278.98 126.67,279.13
		125.4,279.41 124.14,279.97 123.16,280.81 122.46,281.93 122.18,283.33 122.46,284.6 122.88,285.58 123.72,286.28 124.84,286.98
		126.95,287.82 128.77,288.24 130.88,288.8 132.42,289.37 133.96,289.93 135.36,290.63 136.77,291.47 137.89,292.45 138.59,293.71
		139.15,295.26 139.43,297.08 139.15,299.18 138.59,301.01 137.61,302.55 136.49,303.67 135.08,304.8 133.4,305.36 131.44,306.06
		129.75,306.2 	"/>
        <polygon id="XMLID_16_" class="st0" points="156.69,306.34 153.88,306.06 151.36,305.36 149.11,304.37 147.29,302.97
		145.74,301.29 144.34,299.04 143.5,296.66 143.08,294.13 142.94,291.19 143.08,288.24 143.5,285.44 144.34,283.05 145.74,280.81
		147.29,278.84 149.11,277.3 151.36,276.18 154.02,275.34 156.97,275.2 159.35,275.34 161.46,275.76 163.42,276.6 164.96,277.72
		166.51,279.13 167.63,280.95 168.33,283.19 168.75,285.58 163.7,285.58 163.42,283.61 162.86,281.93 161.88,280.67 160.47,279.69
		158.93,279.13 156.97,278.98 154.86,279.13 153.04,279.69 151.64,280.67 150.37,281.93 149.53,283.47 148.83,285.16 148.41,286.98
		148.13,288.94 147.99,290.91 148.13,292.87 148.41,294.7 148.97,296.52 149.67,298.2 150.51,299.75 151.64,300.87 153.04,301.85
		154.86,302.55 156.69,302.69 158.65,302.55 160.33,301.71 161.88,300.87 162.86,299.46 163.56,297.64 163.84,295.68 168.89,295.68
		168.47,298.2 167.63,300.45 166.51,302.27 164.96,303.67 163.28,304.8 161.32,305.64 159.07,306.2 	"/>
        <polygon id="XMLID_17_" class="st0" points="193.3,305.64 193.3,287.54 193.02,285.86 192.88,284.32 192.46,283.05 191.89,281.93
		191.05,280.81 189.79,280.11 188.39,279.69 186.56,279.55 184.46,279.83 182.92,280.39 181.51,281.37 180.53,282.63 179.69,284.32
		179.13,286.14 178.85,287.96 178.71,289.93 178.71,305.64 173.8,305.64 173.8,263.13 178.71,263.13 178.71,280.67 180.25,278.7
		181.65,277.3 183.62,276.32 185.58,275.76 187.97,275.48 190.49,275.76 192.6,276.32 194.42,277.3 195.82,278.56 196.94,280.25
		197.51,282.21 198.07,284.6 198.07,287.12 198.07,305.64 	"/>
        <path id="XMLID_20_" class="st0" d="M216.86,279.13l-2.1,0.28l-1.82,0.84l-1.4,0.98l-1.12,1.54l-0.98,1.82l-0.56,1.82l-0.28,2.1
		h15.71l-0.14-1.96l-0.42-1.96l-0.7-1.82l-1.12-1.4l-1.4-1.12l-1.68-0.84L216.86,279.13z M208.59,291.89v0.56v1.96l0.42,1.82
		l0.7,1.82l0.84,1.68l1.26,1.26l1.4,0.98l1.68,0.56l1.96,0.28l1.96-0.28l1.68-0.56l1.4-0.98l1.12-1.4l0.84-1.68l0.42-1.96h4.63
		l-0.7,2.81l-1.12,2.24l-1.54,1.82l-1.82,1.4l-2.1,0.98l-2.38,0.56l-2.67,0.28l-2.81-0.28l-2.38-0.7l-2.1-1.12l-1.82-1.26l-1.4-1.82
		l-1.12-2.1l-0.84-2.38l-0.56-2.67l-0.14-2.81l0.14-2.81l0.56-2.67l0.84-2.52l1.12-2.1l1.54-1.96l1.82-1.68l2.24-1.12l2.52-0.7
		l2.81-0.28l2.81,0.28l2.24,0.56l1.96,0.98l1.54,1.4l1.26,1.54l0.98,1.96l0.84,2.1l0.42,2.24l0.28,2.52l0.14,2.52L208.59,291.89
		L208.59,291.89z"/>
        <path id="XMLID_24_" class="st0" d="M262.17,285.72h-8.7v15.57h8.56l1.68-0.14l1.68-0.28l1.4-0.42l1.4-0.42l1.12-0.7l0.98-0.98
		l0.84-1.26l0.42-1.54l0.28-1.96l-0.28-2.1l-0.56-1.82l-0.98-1.54l-1.12-0.98l-1.4-0.7l-1.68-0.42l-1.82-0.14L262.17,285.72z
		 M262.17,267.48h-8.7v14.17h7.86l1.68-0.14l1.82-0.28l1.4-0.42l1.4-0.84l0.98-0.98l0.98-1.26l0.42-1.68l0.14-1.82l-0.14-1.82
		l-0.56-1.68l-0.98-1.12l-1.26-0.98l-1.4-0.7l-1.68-0.28L262.17,267.48z M262.03,305.64h-13.89v-42.5h14.45l2.1,0.14l1.96,0.28
		l2.1,0.7l1.82,0.84l1.68,1.12l1.4,1.4l1.12,1.82l0.7,1.96l0.28,2.38l-0.28,2.52l-0.7,2.1l-1.12,1.82l-1.68,1.4l-1.82,1.12
		l-2.24,0.84l2.24,0.56l2.1,0.84l1.82,1.12l1.4,1.4l0.98,1.68l0.7,2.24l0.28,2.52l-0.28,2.67l-0.7,2.24l-0.98,1.82l-1.4,1.54
		l-1.54,1.26l-1.96,0.98l-2.1,0.7l-2.1,0.42l-2.1,0.28L262.03,305.64z"/>
        <path id="XMLID_27_" class="st0" d="M297.8,290.63h-1.54l-1.4,0.14l-1.68,0.14l-1.54,0.42l-1.54,0.42l-1.4,0.56l-1.12,0.84
		l-0.84,1.12l-0.56,1.4l-0.28,1.54l0.28,1.68l0.7,1.26l1.12,1.26l1.26,0.7l1.54,0.7h1.54h1.96l1.68-0.7l1.12-0.7l1.12-0.98l0.7-1.26
		l0.7-1.4l0.28-1.54l0.28-1.68l0.14-1.68v-1.82h-0.84l-0.84-0.14L297.8,290.63L297.8,290.63z M301.31,305.64l-0.42-4.07l-1.68,1.82
		l-1.68,1.4l-1.96,0.84l-2.1,0.7l-2.38,0.14l-1.96-0.14l-1.96-0.42l-1.68-0.7l-1.54-0.84l-1.12-1.26l-1.12-1.54l-0.56-1.96
		l-0.28-2.1l0.28-2.24l0.7-1.82l0.98-1.54l1.26-1.26l1.54-0.98l1.68-0.7l1.96-0.56l1.96-0.42l2.1-0.28l1.96-0.14h1.96l1.4,0.14h1.4
		V286l-0.14-1.96l-0.42-1.54l-0.56-1.26l-0.84-0.98l-1.26-0.84l-1.4-0.42l-1.82-0.14l-1.54,0.14l-1.54,0.28l-0.98,0.7l-0.98,0.98
		l-0.56,1.26l-0.28,1.82h-4.91l0.42-2.1l0.7-1.96l0.98-1.54l1.4-1.12l1.54-0.84l1.82-0.56l1.96-0.28l1.96-0.14l2.52,0.14l2.24,0.42
		l1.82,0.7l1.54,1.12l1.12,1.4l0.98,1.96l0.42,2.1l0.28,2.81v10.94l0.14,2.81l0.14,2.52l0.14,1.96l0.28,1.26L301.31,305.64
		L301.31,305.64z"/>
        <polygon id="XMLID_28_" class="st0" points="331.19,305.64 331.19,287.54 331.05,286 330.91,284.46 330.35,283.19 329.78,281.93
		329.08,280.95 327.96,280.25 326.42,279.69 324.59,279.69 322.77,279.83 321.09,280.39 319.68,281.37 318.84,282.49 318,283.89
		317.44,285.58 316.88,287.26 316.88,289.08 316.74,290.77 316.74,305.64 311.83,305.64 311.83,281.79 311.69,279.41 311.69,277.72
		311.55,276.04 316.46,276.04 316.6,280.81 318,278.98 319.68,277.58 321.65,276.46 323.61,275.9 326,275.62 328.66,275.9
		330.77,276.46 332.59,277.44 333.85,278.7 334.97,280.39 335.82,282.21 336.24,284.74 336.38,287.26 336.38,305.64 	"/>
        <path id="XMLID_31_" class="st0" d="M362.33,305.64l-13.89-16.69l12.91-13.05h6.31l-13.33,12.76l14.45,16.83L362.33,305.64
		L362.33,305.64z M343.25,305.64v-42.5h4.91v42.5H343.25z"/>
</g>
</svg>
