<?xml version="1.0" encoding="utf-8"?>
<svg version="1.1" xmlns="http://www.w3.org/2000/svg" x="0px" y="0px"
     viewBox="0 0 1828.4 425.1" style="enable-background:new 0 0 1828.4 425.1;">
    <style type="text/css">
        .st0{fill:url(#SVGID_1_);}
        .st1{fill:url(#SVGID_2_);}
        .st2{fill:#E12A4C;}
        .st3{fill:#E22B4C;}
    </style>
    <g>
        <linearGradient id="SVGID_1_" gradientUnits="userSpaceOnUse" x1="235.3" y1="-127.5832" x2="235.3" y2="272.9497"
                        gradientTransform="matrix(1 0 0 -1 0 284.2)">
            <stop offset="0" style="stop-color:#FFFFFF"/>
            <stop offset="1" style="stop-color:#FFFFFF"/>
        </linearGradient>
        <path class="st0" d="M458.6,140.5c0-70.4-57.1-127.6-127.6-127.6c-38.1,0-72.3,16.7-95.7,43.2c-23.4-26.5-57.6-43.2-95.7-43.2
		C69.2,12.9,12,70,12,140.5c0,34.8,13.9,66.3,36.5,89.3h-0.1l186.5,187l184.3-184.2C443.5,209.4,458.6,176.7,458.6,140.5z"/>

        <linearGradient id="SVGID_2_" gradientUnits="userSpaceOnUse" x1="2" y1="69.3" x2="468.5" y2="69.3"
                        gradientTransform="matrix(1 0 0 -1 0 284.2)">
            <stop offset="4.405286e-03" style="stop-color:#9B2929"/>
            <stop offset="1" style="stop-color:#FFFFFF"/>
        </linearGradient>
        <path class="st1" d="M331,13c70.5,0,127.6,57.1,127.6,127.5c0,36.2-15.1,68.8-39.2,92L235.1,416.8l-186.5-187h0.1
		c-22.6-23-36.5-54.5-36.5-89.3c0-70.4,57.1-127.6,127.6-127.6c38.1,0,72.3,16.7,95.7,43.2C258.8,29.7,292.9,13,331,13 M331,3
		c-35.8,0-70.1,14-95.7,38.7C209.7,17,175.4,3,139.6,3c-36.7,0-71.3,14.3-97.3,40.3S2,103.8,2,140.6c0,35.9,13.7,69.8,38.6,95.5
		c0.2,0.3,0.5,0.6,0.7,0.8l186.5,187c1.9,1.9,4.4,2.9,7.1,2.9l0,0c2.7,0,5.2-1.1,7.1-2.9l184.2-184.1c13.2-12.7,23.6-27.6,30.9-44.3
		c7.6-17.3,11.4-35.8,11.4-54.9c0-36.7-14.3-71.3-40.3-97.3C402.3,17.3,367.8,3,331,3L331,3z"/>
        <path class="st2" d="M257.9,91.3c22.2-17.8,51.7-26.4,81.9-21.2c56,9.7,93.5,62.9,83.9,118.9c-1.9,10.8-5.4,21-10.2,30.3
		c15.2-19.6,24.3-44.2,24.3-70.9c0-63.9-51.8-115.6-115.6-115.6c-32.8,0-62.4,13.7-83.5,35.7C246.1,75.1,252.6,82.8,257.9,91.3z"/>
        <polygon class="st2" points="211.7,375.4 235.1,398.8 370.8,263.2 	"/>
        <path class="st2" d="M193.7,357.3L85.6,203.7l0,0c-14.8-21.4-21.5-48.3-16.7-76c9.7-56,62.9-93.5,118.9-83.9
		c7.8,1.4,15.3,3.6,22.4,6.5c-17.8-11.2-38.9-17.7-61.5-17.7c-63.9,0-115.6,51.8-115.6,115.6c0,31.5,12.6,60.1,33.1,80.9h-0.1
		L193.7,357.3z"/>
    </g>
    <g>
        <path class="st3" d="M526.9,83.3V40.5h17.3v42.8H526.9z M526.9,412.8V147.6h17.3v265.2H526.9z"/>
        <path class="st3" d="M622.2,412.8V50.7H740c114.2,0,170.8,80.6,170.8,180.5c0,109.6-66.3,181.6-170.8,181.6H622.2z M740,67H639.6
		v329.5h100.5c101,0,153.5-71.4,153.5-165.2C893.5,135.8,838.5,67,740,67z"/>
        <path class="st3" d="M941.5,336.3c0-44.9,45.4-76.5,110.2-76.5c29.1,0,61.7,5.1,85.7,14.3v-28.6c0-52.5-33.1-87.2-83.6-87.2
		c-25.5,0-55.6,11.7-85.2,32.6l-8.2-12.8c34.2-22.9,65.3-34.7,94.3-34.7c61.2,0,100,39.8,100,103v138.7c0,7.7,3.1,11.2,9.2,11.2
		v16.3c-1.5,0.5-2.6,0.5-4.1,0.5c-11.7,0-21.4-9.7-21.4-21.9v-23.5c-24,31.6-65.3,50-110.2,50C979.7,417.9,941.5,382.2,941.5,336.3z
		 M1129.2,358.7c5.1-6.6,8.2-14.3,8.2-20.4v-50c-26-10.2-54.6-15.3-84.7-15.3c-56.1,0-93.8,25-93.8,62.7S990,403,1030.8,403
		C1073.1,403.1,1111.8,385.7,1129.2,358.7z"/>
        <path class="st3" d="M1331.1,400.5c-3.1,1-24,14.8-52,14.8c-26,0-49-16.3-49-43.9V162.9h-37.7v-15.3h37.7V56.3h17.3v91.3h63.2v15.3
		h-63.2v206c1.5,19.9,17.3,30.1,34.7,30.1c22.4,0,40.3-11.2,42.3-12.7L1331.1,400.5z"/>
        <path class="st3" d="M1344.9,278.6c0-74.5,55.6-135.1,127-135.1c72.4,0,128.5,61.7,129,136.7c0,1.5-0.5,7.1-0.5,7.6h-237.7
		c4.6,65.3,53.5,115.3,111.7,115.3c39.3,0,77-21.9,91.3-53.5l15.8,4.1c-15.3,37.2-60.2,64.3-107.6,64.3
		C1402,417.9,1344.9,354.6,1344.9,278.6z M1583.6,273c-4.6-66.8-51.5-114.2-111.2-114.2s-106.6,48.4-110.2,114.2H1583.6z"/>
        <path class="st3" d="M1623.4,376l9.7-11.7c28.1,26,57.1,38.8,93.8,38.8c49.5,0,83.1-22.4,83.1-60.2c0-35.7-31.1-44.9-88.7-58.6
		c-58.1-13.8-85.7-21.9-85.7-64.3c0-52.5,43.9-76.5,94.9-76.5c42.3,0,75,15.8,89.2,37.7l-11.7,8.7c-14.8-20.4-46.4-31.6-79-31.6
		c-41.8,0-76.5,17.8-76.5,59.2c0,33.1,21.4,39.8,72.4,51.5c64.8,15.3,102.5,26,102.5,71.9c0,46.9-39.8,77-100,77
		C1686.6,417.9,1650.4,404.1,1623.4,376z"/>
    </g>
</svg>
