<?xml version="1.0" encoding="UTF-8"?>
<svg width="192px" height="134px" viewBox="0 0 192 134" version="1.1" xmlns="http://www.w3.org/2000/svg">
    <defs>
        <linearGradient x1="11.9624732%" y1="58.8390202%" x2="33.9511366%" y2="40.6484764%" id="linearGradient-1">
            <stop stop-color="#283F64" offset="0%"/>
            <stop stop-color="#456EB0" offset="100%"/>
        </linearGradient>
    </defs>
    <g id="logo-raw" stroke="none" stroke-width="1" fill="none" fill-rule="evenodd">
        <path d="M148.47168,115.193952 C149.5488,115.193952 150.46224,115.572672 151.21152,116.331072 C151.96032,117.088992 152.3352,118.000512 152.3352,119.066592 L152.3352,120.913632 L149.80368,120.913632 L149.80368,119.021952 C149.80368,118.631232 149.66592,118.298112 149.39088,118.022592 C149.11536,117.747552 148.78224,117.609792 148.39152,117.609792 C148.00656,117.609792 147.67824,117.747552 147.4056,118.022592 C147.13296,118.298112 146.99712,118.631232 146.99712,119.021952 L146.99712,127.912512 C146.99712,128.303232 147.13296,128.634912 147.4056,128.907552 C147.67824,129.179232 148.00656,129.315552 148.39152,129.315552 C148.78224,129.315552 149.11536,129.179232 149.39088,128.907552 C149.66592,128.634912 149.80368,128.303232 149.80368,127.912512 L149.80368,124.723872 L148.4448,124.723872 L148.4448,122.281632 L152.3352,122.281632 L152.3352,127.938912 C152.3352,129.016992 151.956,129.929952 151.19856,130.679232 C150.44016,131.428512 149.53104,131.802432 148.47168,131.802432 C147.3936,131.802432 146.4792,131.423712 145.72704,130.665792 C144.97488,129.907872 144.59904,128.999232 144.59904,127.938912 L144.59904,119.066592 C144.59904,117.994752 144.97824,117.081312 145.73616,116.326272 C146.4936,115.571712 147.4056,115.193952 148.47168,115.193952 Z M168.171072,115.202688 C169.249152,115.202688 170.164992,115.581888 170.920032,116.339808 C171.674592,117.097728 172.052352,118.012608 172.052352,119.084448 L172.052352,127.921248 C172.052352,128.999328 171.673152,129.915168 170.915232,130.670208 C170.157312,131.425248 169.242432,131.802528 168.171072,131.802528 C167.099232,131.802528 166.188672,131.423808 165.439872,130.665888 C164.691072,129.907968 164.316192,128.992608 164.316192,127.921248 L164.316192,119.084448 C164.316192,118.006368 164.694912,117.090048 165.452832,116.335008 C166.211232,115.580448 167.116992,115.202688 168.171072,115.202688 Z M176.573136,115.397952 L176.573136,127.930272 C176.573136,128.315232 176.710416,128.644032 176.986416,128.915712 C177.261456,129.188352 177.591216,129.324672 177.976176,129.324672 C178.367376,129.324672 178.697136,129.188352 178.966896,128.915712 C179.236176,128.644032 179.370576,128.315232 179.370576,127.930272 L179.370576,115.397952 L181.919856,115.397952 L181.919856,127.956672 C181.919856,129.040512 181.541136,129.952512 180.783216,130.692192 C180.025296,131.432352 179.109936,131.802432 178.038576,131.802432 C176.967216,131.802432 176.056656,131.428512 175.307856,130.679232 C174.558096,129.929952 174.184176,129.022752 174.184176,127.956672 L174.184176,115.397952 L176.573136,115.397952 Z M158.29488,115.397856 C159.65616,115.397856 160.65408,115.774656 161.28768,116.526336 C161.84976,117.183456 162.13152,118.095456 162.13152,119.261376 L162.13152,121.615776 C162.13152,122.763936 161.69664,123.732576 160.82784,124.519296 L162.63792,131.598336 L160.0032,131.598336 L158.51424,125.478816 C158.44272,125.484576 158.3688,125.487936 158.292,125.487936 L156.89136,125.487936 L156.89136,131.598336 L154.44864,131.598336 L154.44864,115.397856 L158.29488,115.397856 Z M187.933008,115.397856 C189.122448,115.397856 190.069968,115.774656 190.775088,116.526336 C191.432208,117.242496 191.760528,118.154976 191.760528,119.261376 L191.760528,121.615776 C191.760528,122.680896 191.388048,123.592896 190.643088,124.350816 C189.899088,125.109216 188.997168,125.487936 187.939248,125.487936 L186.529488,125.487936 L186.529488,131.598336 L184.086768,131.598336 L184.086768,115.397856 L187.933008,115.397856 Z M168.109152,117.645408 C167.723712,117.645408 167.393472,117.779808 167.118432,118.048608 C166.843392,118.318368 166.705632,118.648128 166.705632,119.038848 L166.705632,127.904448 C166.705632,128.288928 166.843392,128.617728 167.118432,128.889888 C167.393472,129.162048 167.723712,129.297888 168.109152,129.297888 C168.499392,129.297888 168.829632,129.162048 169.098912,128.889888 C169.368672,128.617728 169.503072,128.288928 169.503072,127.904448 L169.503072,119.038848 C169.503072,118.648128 169.368672,118.318368 169.098912,118.048608 C168.829632,117.779808 168.499392,117.645408 168.109152,117.645408 Z M158.36112,117.894336 L156.89136,117.894336 L156.89136,123.072096 L158.36112,123.072096 C158.75088,123.072096 159.08016,122.934336 159.34848,122.658816 C159.6168,122.383776 159.7512,122.054016 159.7512,121.668576 L159.7512,119.306016 C159.7512,118.364736 159.28752,117.894336 158.36112,117.894336 Z M187.999248,117.894336 L186.529488,117.894336 L186.529488,123.072096 L187.999248,123.072096 C188.388528,123.072096 188.717808,122.934336 188.986608,122.658816 C189.255408,122.383776 189.389328,122.054016 189.389328,121.668576 L189.389328,119.306016 C189.389328,118.879776 189.264048,118.537536 189.013008,118.280256 C188.761968,118.022496 188.424048,117.894336 187.999248,117.894336 Z"
              id="GROUP" fill="#456EB0"/>
        <path d="M124.905696,65.012064 L124.905696,100.429344 C124.905696,101.517504 125.294976,102.445824 126.073056,103.215744 C126.851136,103.985664 127.783776,104.370144 128.871456,104.370144 C129.976416,104.370144 130.908576,103.985664 131.670336,103.215744 C132.431616,102.445824 132.812736,101.517504 132.812736,100.429344 L132.812736,65.012064 L140.016576,65.012064 L140.016576,100.504704 C140.016576,103.567104 138.945216,106.144224 136.803456,108.236064 C134.661216,110.327424 132.075936,111.373344 129.047136,111.373344 C126.017856,111.373344 123.445056,110.315424 121.328736,108.198144 C119.211936,106.081824 118.153536,103.516704 118.153536,100.504704 L118.153536,65.012064 L124.905696,65.012064 Z M18.97392,65.012016 L24.69696,100.655376 L30.49536,65.012016 L37.72416,65.012016 L29.41584,110.796336 L19.90272,110.796336 L11.74464,65.012016 L18.97392,65.012016 Z M61.634208,65.012016 L61.634208,71.914896 L48.883008,71.914896 L48.883008,84.465456 L58.195488,84.465456 L58.195488,91.367856 L48.883008,91.367856 L48.883008,103.893456 L61.634208,103.893456 L61.634208,110.796336 L41.980128,110.796336 L41.980128,65.012016 L61.634208,65.012016 Z M155.467872,65.012016 C159.316032,65.012016 162.136032,66.074736 163.926912,68.200176 C165.516192,70.057296 166.311552,72.634416 166.311552,75.931056 L166.311552,82.582896 C166.311552,85.829136 165.083232,88.565616 162.628032,90.790416 L167.741952,110.796336 L160.297152,110.796336 L156.087552,93.501936 C155.886432,93.518736 155.678112,93.526416 155.461152,93.526416 L151.501632,93.526416 L151.501632,110.796336 L144.598752,110.796336 L144.598752,65.012016 L155.467872,65.012016 Z M191.777472,65.012016 L191.777472,71.914896 L179.026272,71.914896 L179.026272,84.465456 L188.338752,84.465456 L188.338752,91.367856 L179.026272,91.367856 L179.026272,103.893456 L191.777472,103.893456 L191.777472,110.796336 L172.123392,110.796336 L172.123392,65.012016 L191.777472,65.012016 Z M72.592848,65.01192 L81.729168,95.76072 L81.729168,67.3044 L88.632048,79.13112 L88.632048,110.79624 L81.238128,110.79624 L71.739408,81.47832 L71.739408,110.79624 L64.836528,110.79624 L64.836528,65.01192 L72.592848,65.01192 Z M114.173904,65.012112 L114.173904,71.914992 L106.869264,71.914992 L106.869264,110.796432 L99.966384,110.796432 L99.966384,71.914992 L95.958384,71.914992 L102.965904,65.012112 L114.173904,65.012112 Z M6.86448,77.469984 L6.86448,110.760384 L2.84217094e-14,110.760384 L2.84217094e-14,77.469984 L6.86448,77.469984 Z M155.655552,72.065616 L151.501632,72.065616 L151.501632,86.699376 L155.655552,86.699376 C156.756192,86.699376 157.686432,86.310096 158.445792,85.532016 C159.204672,84.753936 159.584352,83.821296 159.584352,82.733136 L159.584352,76.056336 C159.584352,73.395696 158.274432,72.065616 155.655552,72.065616 Z M6.92448,65.051424 L6.92448,72.175584 L0.06,72.175584 L0.06,65.051424 L6.92448,65.051424 Z"
              id="iVENTURE" fill="#E1E1E0"/>
        <g id="icon" transform="translate(42.000960, 0.000000)">
            <polygon id="right" fill="url(#linearGradient-1)"
                     points="47.142912 78.626016 98.016192 28.517856 47.142912 47.142336"/>
            <path d="M17.898096,23.045136 L24.376656,24.376176 L63.005616,63.002256 L46.630896,79.131216 L17.300976,28.876176 L17.898096,23.045136 Z M1.42108547e-14,0 L20.07168,20.07072 L14.79552,18.57552 L14.6256,24.37632 L1.42108547e-14,0 Z"
                  id="left" fill="#73BADC"/>
        </g>
    </g>
</svg>
