<svg viewBox="0 0 708.6 153.1" xmlns="http://www.w3.org/2000/svg">
    <path d="m708.6 119.3h-56.6v-103.2h-16l-12.8 19v79.6c.9 1.4 1.7 2.7 2.6 4 5.9 9.5 10.9 17.9 15 25.3h67.9v-24.7z" fill="#013854"/><path d="m70.6 80.6c0 5.9-.7 11.2-2.2 16-1.4 4.8-3.6 9-6.4 12.4-2.8 3.5-6.3 6.2-10.4 8.1s-8.9 2.9-14.3 2.9c-3 0-5.8-.3-8.4-.9s-5.1-1.4-7.5-2.5v29.6l-21.5 3v-104c1.9-.6 4.1-1.1 6.6-1.7 2.5-.5 5.1-1 7.9-1.4 2.7-.4 5.5-.7 8.4-.9 2.8-.2 5.6-.4 8.2-.4 6.3 0 11.8.9 16.8 2.8 4.9 1.9 9.1 4.5 12.4 7.9 3.4 3.4 5.9 7.6 7.7 12.5 1.8 5 2.7 10.5 2.7 16.6zm-21.9.5c0-6.6-1.5-12-4.5-16s-7.4-6-13.3-6c-1.9 0-3.7.1-5.3.2s-3 .3-4 .5v38.9c1.3.9 3.1 1.6 5.3 2.2s4.4.9 6.6.9c10.1 0 15.2-6.9 15.2-20.7zm105.5-.7c0 6-.9 11.4-2.6 16.4s-4.2 9.2-7.5 12.7-7.2 6.2-11.8 8.2c-4.6 1.9-9.7 2.9-15.4 2.9-5.6 0-10.7-1-15.2-2.9-4.6-1.9-8.5-4.6-11.8-8.2s-5.8-7.8-7.7-12.7c-1.8-5-2.7-10.4-2.7-16.4s.9-11.4 2.8-16.3 4.5-9.1 7.8-12.6 7.3-6.2 11.8-8.1c4.6-1.9 9.6-2.9 15-2.9 5.5 0 10.5 1 15.1 2.9s8.5 4.6 11.8 8.1 5.8 7.7 7.7 12.6c1.8 4.9 2.7 10.3 2.7 16.3zm-21.9 0c0-6.6-1.3-11.9-4-15.7s-6.4-5.7-11.3-5.7-8.7 1.9-11.4 5.7-4 9-4 15.7c0 6.6 1.3 11.9 4 15.8s6.5 5.8 11.4 5.8 8.7-2 11.3-5.8c2.6-3.9 4-9.1 4-15.8zm56.2 22.7c3.9 0 6.7-.4 8.4-1.2 1.6-.8 2.5-2.3 2.5-4.5 0-1.7-1.1-3.3-3.2-4.5-2.1-1.3-5.3-2.8-9.7-4.4-3.4-1.2-6.4-2.6-9.2-3.9-2.7-1.4-5.1-3-7-4.8-1.9-1.9-3.4-4.1-4.5-6.7s-1.6-5.7-1.6-9.4c0-7.1 2.6-12.8 7.9-16.9s12.6-6.2 21.8-6.2c4.6 0 9.1.4 13.3 1.2s7.6 1.7 10.1 2.7l-3.8 16.8c-2.5-.9-5.2-1.6-8.2-2.3-2.9-.7-6.2-1-9.9-1-6.7 0-10.1 1.9-10.1 5.6 0 .9.1 1.6.4 2.3s.9 1.3 1.7 2c.9.6 2 1.3 3.5 2s3.4 1.5 5.7 2.4c4.7 1.7 8.6 3.5 11.7 5.2s5.5 3.5 7.3 5.5 3 4.2 3.8 6.6c.7 2.4 1.1 5.2 1.1 8.4 0 7.5-2.8 13.2-8.5 17-5.6 3.8-13.6 5.8-23.9 5.8-6.7 0-12.3-.6-16.8-1.7-4.5-1.2-7.6-2.1-9.3-2.9l3.6-17.5c3.7 1.4 7.4 2.6 11.3 3.4 4.1.6 7.9 1 11.6 1zm46.1-79.5 21.5-3.5v22.4h25.9v17.9h-25.9v26.7c0 4.5.8 8.1 2.4 10.8s4.8 4 9.6 4c2.3 0 4.7-.2 7.2-.7 2.5-.4 4.7-1 6.7-1.8l3 16.8c-2.6 1.1-5.5 2-8.7 2.7-3.2.8-7.1 1.2-11.7 1.2-5.9 0-10.7-.8-14.6-2.4s-6.9-3.8-9.2-6.6-3.9-6.3-4.8-10.3-1.4-8.5-1.4-13.4zm56.9 57.5c0-6.7 1-12.6 3.1-17.7s4.8-9.3 8.2-12.6c3.4-3.4 7.2-5.9 11.6-7.7 4.4-1.7 8.9-2.6 13.5-2.6 10.8 0 19.3 3.3 25.6 9.9s9.4 16.3 9.4 29.1c0 1.3 0 2.6-.1 4.1s-.2 2.8-.3 4h-48.8c.5 4.4 2.5 7.9 6.2 10.5s8.6 3.9 14.7 3.9c3.9 0 7.8-.4 11.6-1.1s6.9-1.6 9.3-2.7l2.9 17.5c-1.2.6-2.7 1.2-4.6 1.7-1.9.6-4.1 1.1-6.4 1.5-2.4.4-4.9.8-7.6 1.1s-5.4.4-8.1.4c-6.8 0-12.8-1-17.8-3-5.1-2-9.2-4.8-12.6-8.3-3.3-3.5-5.8-7.7-7.4-12.5-1.6-4.7-2.4-9.9-2.4-15.5zm50.6-8.2c-.1-1.8-.4-3.6-.9-5.3s-1.3-3.3-2.5-4.6c-1.1-1.4-2.5-2.5-4.2-3.3-1.7-.9-3.8-1.3-6.3-1.3-2.4 0-4.5.4-6.2 1.2s-3.2 1.9-4.3 3.3c-1.2 1.4-2 2.9-2.7 4.7-.6 1.8-1.1 3.6-1.4 5.4h28.5zm79.1-11.3c-1.9-.5-4.2-1-6.8-1.5s-5.4-.8-8.4-.8c-1.3 0-3 .1-4.8.4-1.9.2-3.3.5-4.3.8v58.1h-21.5v-72c3.9-1.3 8.4-2.6 13.7-3.8 5.2-1.2 11.1-1.8 17.6-1.8 1.2 0 2.6.1 4.2.2s3.3.3 4.9.6c1.6.2 3.3.5 4.9.9 1.6.3 3 .7 4.2 1.2z" fill="#9bc42f"/><g fill="#013854"><path d="m590.7 73.6 33-50.6 5.7-8.5 9.9-14.5h-40.2l-26.9 41.6-26.4-41.6h-42.3l9.6 14.6 13 19.8 25.9 40.8-48.3 77.8h40.3c1.3-2.8 26.6-50.8 26.6-50.8l28.9 50.8h39.5z"/><path d="m522.9 111.5s-15.2-24.9-25.2-37.4l26-34.5-17.2-24.6-25.4 36.4-22-35.2h-38.5l39.8 59.2c-9.2 12.2-36.1 58.7-41.6 68.9h33.6c1.1-2.4 27.3-43.8 27.6-43.7s24.7 39 24.7 39z"/></g>
</svg>
