<svg xmlns="http://www.w3.org/2000/svg" viewBox="0 0 125 125"><defs/><g class="layer"><rect width="100%" height="100%" fill="#fff" rx="20" ry="20"/><g class="layer"><path fill="#FA002E" d="M122.375 51.962v21.076H85.013V51.962h37.362zm-22.992 4.79h-2.874v11.496h14.37v-1.916H99.383v-9.58z"/><path fill="#00ACF2" d="M81.181 51.962v21.076H43.819V51.962h37.362zm-10.538 4.79H54.357v1.916h6.706v9.58h2.874v-9.58h6.706v-1.916z"/><path fill="#0036F2" d="M39.987 51.962v21.076H2.625V51.962h37.362zm-16.286 4.79H13.163v11.496h2.874v-3.832h4.79l4.79 3.832h3.832l-4.79-3.832c1.916-.958 3.832-1.916 3.832-3.832 0-2.874-1.916-3.832-4.79-3.832zm-.958 1.916c1.916 0 2.874.958 2.874 1.916s-.958 1.916-2.874 1.916h-6.706v-3.832h6.706z"/></g></g></svg>
