<?xml version="1.0" encoding="UTF-8" standalone="no"?>
<svg
        xmlns="http://www.w3.org/2000/svg"
        version="1.1"
        width="601.49811"
        height="151.11935"
        id="svg2"
        xml:space="preserve">
    <defs
            id="defs6"><clipPath
       id="clipPath18"><path
         d="m 0,595.276 841.89,0 L 841.89,0 0,0 0,595.276 z"
         id="path20" /></clipPath></defs>
    <g
            id="layer2"><rect
       width="601.88379"
       height="150.83006"
       x="0"
       y="0.28929245"
       id="rect3843"
       style="fill:#000000;fill-opacity:1" /></g>
    <g
            transform="matrix(1.25,0,0,-1.25,-225.43176,447.60661)"
            id="g10"><g
       id="g3821"
       style="fill:#ffffff"><path
         d="m 503.366,267.818 -23.26,0 0,23 23.26,0 0,-23 z"
         id="path12"
         style="fill:#ffffff;fill-opacity:1;fill-rule:nonzero;stroke:none" /><g
            id="g14"
            style="fill:#ffffff"><g
           clip-path="url(#clipPath18)"
           id="g16"
           style="fill:#ffffff"><g
             transform="translate(217.0947,326.377)"
             id="g22"
             style="fill:#ffffff"><path
               d="m 0,0 8.16,0 0,-17.039 -8.16,0 0,-17.758 c 0,-4.682 1.2,-5.4 4.681,-5.4 l 3.479,0 0,-18.362 -17.76,0 c -9.6,0 -14.64,4.442 -14.64,13.92 l 0,27.6 -6.84,0 0,17.039 6.84,0 0,26.039 24.24,0 L 0,0 z"
               id="path24"
               style="fill:#ffffff;fill-opacity:1;fill-rule:nonzero;stroke:none" /></g><g
            transform="translate(280.5742,296.6172)"
            id="g26"
            style="fill:#ffffff"><path
               d="m 0,0 c 0,6.12 -5.28,11.161 -11.4,11.161 -6.121,0 -10.92,-5.28 -10.92,-11.161 0,-6.238 4.68,-11.037 10.92,-11.037 C -5.28,-11.037 0,-6.238 0,0 m 22.92,12.721 0,-24.479 6.721,0 0,-17.041 -29.401,0 0,8.641 -0.24,0 c -5.4,-6.84 -10.92,-10.561 -20.16,-10.561 -17.521,0 -27.481,15.121 -27.481,31.199 0,17.76 9.361,31.2 28.201,31.2 8.28,0 15.72,-4.201 19.92,-10.92 l 0.24,0 0,9 28.921,0 0,-17.039 -6.721,0 z"
               id="path28"
               style="fill:#ffffff;fill-opacity:1;fill-rule:nonzero;stroke:none" /></g><g
            transform="translate(359.0527,285.5801)"
            id="g30"
            style="fill:#ffffff"><path
               d="M 0,0 C 6.24,0 11.28,4.92 11.28,11.158 11.28,17.278 6,22.077 0,22.077 -6,22.077 -10.68,17.039 -10.68,11.158 -10.68,5.039 -6.24,0 0,0 m -11.04,33.477 c 0,-1.321 5.4,9.24 20.04,9.24 17.641,0 27.961,-12.84 27.961,-29.759 0,-17.878 -9.24,-32.64 -28.32,-32.64 -8.281,0 -14.641,3.602 -18.721,8.881 l -0.24,0 0,-0.24 0,-14.641 7.92,0 0,-17.039 -38.28,0 0,17.039 6.119,0 0,49.44 -6.119,0 0,17.039 29.64,0 0,-7.32 z"
               id="path32"
               style="fill:#ffffff;fill-opacity:1;fill-rule:nonzero;stroke:none" /></g><g
            transform="translate(450.6113,301.8984)"
            id="g34"
            style="fill:#ffffff"><path
               d="M 0,0 C 0,6.839 -2.52,11.758 -10.08,11.758 -18,11.758 -21.84,6.36 -21.84,0 L 0,0 z M 21.119,-19.799 C 16.199,-31.199 2.76,-36 -8.881,-36 c -28.439,0 -37.68,15.361 -37.68,30.719 0,20.76 16.2,31.679 35.641,31.679 24.6,0 34.08,-12.36 34.08,-35.998 l -44.64,0 c -0.241,-7.199 3.72,-11.279 11.519,-11.279 4.08,0 7.92,1.68 10.08,5.279 l 21,-4.199 z"
               id="path36"
               style="fill:#ffffff;fill-opacity:1;fill-rule:nonzero;stroke:none" /></g><g
            transform="translate(536.2891,326.377)"
            id="g38"
            style="fill:#ffffff"><path
               d="m 0,0 8.16,0 0,-17.039 -8.16,0 0,-17.758 c 0,-4.682 1.201,-5.4 4.682,-5.4 l 3.478,0 0,-18.362 -17.76,0 c -9.599,0 -14.64,4.442 -14.64,13.92 l 0,27.6 -6.84,0 0,17.039 6.84,0 0,26.039 24.24,0 L 0,0 z"
               id="path40"
               style="fill:#ffffff;fill-opacity:1;fill-rule:nonzero;stroke:none" /></g><g
            transform="translate(550.4492,326.377)"
            id="g42"
            style="fill:#ffffff"><path
               d="m 0,0 33.119,0 0,-15.839 -5.16,0 9.842,-20.038 10.318,20.038 -4.799,0 0,15.839 30.6,0 0,-17.039 -3.719,0 -22.441,-41.52 -22.44,0 -21.361,41.52 -3.959,0 L 0,0 z"
               id="path44"
               style="fill:#ffffff;fill-opacity:1;fill-rule:nonzero;stroke:none" /></g><g
            transform="translate(640.9775,340.4922)"
            id="g46"
            style="fill:#ffffff"><path
               d="m 0,0 1.615,0 c 1.386,0 2.772,0.205 2.772,1.865 0,1.521 -1.751,1.521 -3.06,1.521 L 0,3.386 0,0 z m -3.983,-7.286 0,1.677 1.481,0 0,8.995 -1.481,0 0,1.677 5.965,0 C 2.924,5.063 4.964,5.2 6.272,3.659 6.908,2.941 6.888,2.172 6.888,1.983 6.888,0.548 6.177,-0.273 4.714,-0.82 l 0,-0.035 c 1.578,-0.342 1.712,-1.214 1.712,-1.968 l 0,-2.786 1.346,0 0,-1.677 -3.847,0 0,4.328 c 0,1.162 -1.404,1.282 -2.424,1.282 l -1.501,0 0,-3.933 1.538,0 0,-1.677 -5.521,0 z"
               id="path48"
               style="fill:#ffffff;fill-opacity:1;fill-rule:nonzero;stroke:none" /></g><g
            transform="translate(632.7656,339.3818)"
            id="g50"
            style="fill:#ffffff"><path
               d="M 0,0 C 0.009,-5.58 4.528,-10.098 10.105,-10.107 15.687,-10.098 20.202,-5.58 20.213,0 20.202,5.581 15.687,10.096 10.105,10.105 4.528,10.096 0.009,5.581 0,0 M -2.896,0 C -2.895,7.182 2.925,13 10.105,13.003 17.289,13 23.107,7.182 23.109,0 c -0.002,-7.183 -5.82,-13.003 -13.004,-13.003 -7.18,0 -13,5.82 -13.001,13.003"
               id="path52"
               style="fill:#ffffff;fill-opacity:1;fill-rule:nonzero;stroke:none" /></g></g></g></g></g></svg>
